Coordinates
version=1
nRows=17
nColumns=24
inDegrees=yes

Units are S.I. units (second, meters, Newtons, ...)
Angles are in degrees.

endheader
time	pelvis_tilt	pelvis_list	pelvis_rotation	pelvis_tx	pelvis_ty	pelvis_tz	hip_flexion_r	hip_adduction_r	hip_rotation_r	knee_angle_r	ankle_angle_r	subtalar_angle_r	mtp_angle_r	hip_flexion_l	hip_adduction_l	hip_rotation_l	knee_angle_l	ankle_angle_l	subtalar_angle_l	mtp_angle_l	lumbar_extension	lumbar_bending	lumbar_rotation
      0.70400000	     -2.98717975	      5.78206288	     11.05957753	      0.06848070	      0.97044961	      0.27997871	     30.99024192	    -10.29271487	    -10.39190091	     -2.45520792	      5.54259175	     -6.58248301	     11.86412160	    -21.22106892	      5.63288957	     11.21928126	     -0.39966261	      8.73561312	     -5.22471709	      9.20043399	     -1.84706248	     -7.03360712	     -2.83626637
      0.70816667	     -3.00599053	      5.74289564	     11.19303405	      0.07442218	      0.96990460	      0.28033945	     30.97271519	    -10.27928124	    -10.30727353	     -2.82693468	      5.63082325	     -6.69276207	     11.85199986	    -21.39264471	      5.46195144	     11.29273024	     -0.67527659	      8.60523783	     -5.17656101	      9.22442723	     -1.81802667	     -6.97183788	     -2.83459355
      0.71233333	     -3.01660381	      5.69896792	     11.31870289	      0.08041413	      0.96940572	      0.28073447	     30.93611863	    -10.24956284	    -10.19777375	     -3.21324653	      5.67078957	     -6.84687819	     11.84150381	    -21.56133452	      5.28655998	     11.35810857	     -0.97213013	      8.45792485	     -5.13732338	      9.25154432	     -1.80068387	     -6.90980976	     -2.87892692
      0.71650000	     -3.01026128	      5.64939751	     11.43889390	      0.08646235	      0.96897041	      0.28117233	     30.84037854	    -10.19407136	     -9.96873029	     -3.54607870	      5.60069451	     -7.22900257	     11.81196205	    -21.74153208	      5.10038406	     11.42359263	     -1.27809111	      8.28298034	     -5.09344921	      9.36514098	     -1.79187937	     -6.82098475	     -3.08796651
      0.72066667	     -3.02054443	      5.57675444	     11.55936197	      0.09258939	      0.96855433	      0.28159078	     30.76940866	    -10.11942484	     -9.82612086	     -3.92244136	      5.47565765	     -7.52877287	     11.79238921	    -21.88741630	      4.89853437	     11.46953454	     -1.60961059	      8.08810271	     -5.06831311	      9.50439487	     -1.74443463	     -6.71446730	     -3.20391384
      0.72483333	     -3.02805073	      5.49692645	     11.66398445	      0.09877092	      0.96817569	      0.28205143	     30.69724940	    -10.02482988	     -9.67716946	     -4.32015765	      5.30707378	     -7.82523176	     11.78656809	    -22.02410541	      4.69496802	     11.49923101	     -1.96340434	      7.87707834	     -5.05783157	      9.66597063	     -1.70068018	     -6.60498594	     -3.30806110
      0.72900000	     -3.04018269	      5.40135986	     11.76243183	      0.10502438	      0.96783340	      0.28251952	     30.62724889	     -9.90988910	     -9.55327769	     -4.73070550	      5.09432174	     -8.09533643	     11.79346978	    -22.14347416	      4.48059551	     11.51823216	     -2.33628567	      7.63579310	     -5.05030586	      9.81551832	     -1.63843068	     -6.47753093	     -3.39131953
      0.73316667	     -3.05064821	      5.29881925	     11.84896307	      0.11132894	      0.96753065	      0.28300676	     30.55532418	     -9.77900752	     -9.42244969	     -5.15115371	      4.82425862	     -8.39124482	     11.81149300	    -22.24979970	      4.26527096	     11.51778777	     -2.73556263	      7.37703843	     -5.05405734	      9.97628376	     -1.55976434	     -6.33686877	     -3.47685555
      0.73733333	     -3.07054103	      5.17605521	     11.92159173	      0.11769019	      0.96725337	      0.28352335	     30.49703933	     -9.61894500	     -9.28798072	     -5.58519639	      4.50311712	     -8.70898773	     11.84239169	    -22.32975771	      4.03969218	     11.50620101	     -3.15822657	      7.09907528	     -5.07232660	     10.15733242	     -1.48485878	     -6.18651696	     -3.55013120
      0.74150000	     -3.07311340	      5.05414896	     11.98073673	      0.12407920	      0.96703837	      0.28407531	     30.42017861	     -9.44545306	     -9.12259711	     -6.02200616	      4.12970336	     -9.14844747	     11.91431403	    -22.40674591	      3.81900982	     11.47483657	     -3.62437027	      6.84110193	     -5.10979290	     10.48734237	     -1.40358592	     -6.03093770	     -3.63408776
      0.74566667	     -3.05538479	      4.90281646	     12.03005750	      0.13054808	      0.96689449	      0.28462295	     30.33080854	     -9.24158927	     -9.05651488	     -6.48140056	      3.73317782	     -9.41719529	     13.08115618	    -22.48801858	      3.56591430	     11.36142761	     -4.09768826	      6.45143628	     -5.08221071	     15.00797109	     -1.34381679	     -5.83047626	     -3.60831147
      0.74983333	     -3.10462090	      4.75495339	     12.05274696	      0.13706096	      0.96669374	      0.28519652	     30.33836552	     -9.04175299	     -8.96178715	     -6.99019978	      3.34345184	     -9.59389740	     13.07600286	    -22.49048191	      3.35150808	     11.29957842	     -4.60036830	      6.05472643	     -5.17116008	     15.02895110	     -1.18608729	     -5.64845165	     -3.67934672
      0.75400000	     -3.13113653	      4.59367404	     12.06955583	      0.14358615	      0.96657444	      0.28581126	     30.31348292	     -8.81333121	     -8.81078250	     -7.48299356	      2.87988952	    -10.02257740	     13.08413289	    -22.48878610	      3.12321157	     11.23061351	     -5.14975376	      5.68609705	     -5.26356517	     15.11889841	     -1.06108363	     -5.45347585	     -3.73292137
      0.75816667	     -3.14470924	      4.41517630	     12.05881434	      0.15017810	      0.96650721	      0.28642477	     30.30016029	     -8.56570011	     -8.74290180	     -8.02564240	      2.45773347	    -10.18413224	     13.09392911	    -22.49151400	      2.88867958	     11.11552079	     -5.70786467	      5.23541624	     -5.32615895	     15.18014849	     -0.93871072	     -5.21998230	     -3.74447553
      0.76233333	     -3.17097284	      4.23250448	     12.03807244	      0.15677941	      0.96646371	      0.28708094	     30.30231658	     -8.30466755	     -8.60282715	     -8.57111694	      1.98677636	    -10.57725128	     13.12653968	    -22.44627348	      2.66059219	     10.97540978	     -6.33151333	      4.81266191	     -5.41314376	     15.34419190	     -0.78724346	     -4.99676476	     -3.74160961
      0.76650000	     -3.16107362	      4.05773032	     11.98683364	      0.16340550	      0.96650934	      0.28773457	     30.30172523	     -8.04863107	     -8.55399089	     -9.19276546	      1.59777803	    -10.66912234	     13.14016349	    -22.43357885	      2.44909830	     10.80758739	     -6.96208424	      4.28985453	     -5.49045596	     15.41635096	     -0.67517627	     -4.76143163	     -3.74316364
      0.77066667	     -3.20639480	      3.85081933	     11.92494691	      0.17006221	      0.96651598	      0.28844777	     30.35285955	     -7.75216567	     -8.39525696	     -9.79079198	      1.14433432	    -11.04386575	     13.19390687	    -22.31946404	      2.22433994	     10.61356680	     -7.66767228	      3.80804456	     -5.57320802	     15.69809471	     -0.50156538	     -4.51045041	     -3.68765244
